<svg xmlns="http://www.w3.org/2000/svg" xmlns:xlink="http://www.w3.org/1999/xlink" xmlns:lucid="lucid" width="1347.23" height="713.33"><g transform="translate(-459.4 24.275728476614077)" lucid:page-tab-id="0_0"><path d="M720 177.67a6 6 0 0 1 6-6h148a6 6 0 0 1 6 6v108a6 6 0 0 1-6 6H726a6 6 0 0 1-6-6z" stroke="#282c33" stroke-width="3" fill="#dfe3e8"/><use xlink:href="#a" transform="matrix(1,0,0,1,732,183.66666666666674) translate(43.12345679012346 38.77777777777778)"/><use xlink:href="#b" transform="matrix(1,0,0,1,732,183.66666666666674) translate(0.1913580246913682 65.44444444444446)"/><use xlink:href="#c" transform="matrix(1,0,0,1,732,183.66666666666674) translate(90.19135802469137 65.44444444444446)"/><path d="M500 200h60v63.33h-60V200z" stroke="#000" stroke-opacity="0" fill="url(#d)"/><path d="M548.82 247.67c1.08 1.06 1.2 2.8.2 3.94-.5.58-1.23.9-1.93.9-.63 0-1.3-.24-1.8-.7l-4.8-4.6c-1.42.92-3.03 1.45-4.8 1.45-5.04 0-9.13-4.35-9.13-9.62 0-5.32 4.1-9.63 9.13-9.63 5.03 0 9.12 4.3 9.12 9.63 0 1.46-.3 2.8-.83 4.05zm-13.12-1c4 0 7.26-3.42 7.26-7.64 0-4.23-3.26-7.64-7.26-7.64-3.97 0-7.23 3.4-7.23 7.63 0 4.22 3.26 7.63 7.23 7.63zm-19.12-23.36c0 .42 0 .83.1 1.2 0 .28-.1.56-.26.76-.12.17-.33.3-.54.33-1.73.47-4.66 1.94-4.66 6.28 0 3.3 1.73 5.07 3.18 6.05.62.4 1.2.6 1.65.6h8.46v2h-8.45c-.83 0-1.74-.33-2.64-.94-1.48-.98-4.04-3.3-4.04-7.72 0-5.24 3.3-7.23 5.37-7.96 0-.2-.04-.4-.04-.6 0-4.3 2.8-8.82 6.5-10.44 4.34-1.9 8.92-.97 12.27 2.52 1 1 1.77 2.27 2.43 3.65.87-.65 1.9-1 2.98-1 2.27 0 4.82 1.73 5.32 5.63 3.22.8 6.44 3.37 6.44 8.24 0 2.88-1.07 5.2-3.1 6.74l-1.07-1.62c1.53-1.14 2.3-2.9 2.3-5.12 0-4.9-3.95-6.17-5.64-6.45-.25-.04-.46-.2-.62-.4-.12-.2-.16-.46-.12-.7-.24-3.04-1.94-4.38-3.5-4.38-1 0-1.94.5-2.56 1.4-.2.3-.54.45-.87.37-.37-.04-.66-.28-.8-.65-.56-1.7-1.43-3.16-2.5-4.3-1.37-1.42-5.04-4.43-10.24-2.1-2.96 1.3-5.32 5.1-5.32 8.6zm24.85 15.73c0 3.32-2.55 6-5.73 6-3.14 0-5.7-2.68-5.7-6 0-3.33 2.56-6 5.7-6 3.18 0 5.73 2.67 5.73 6zm-1.9 0c0-2.24-1.7-4.06-3.83-4.06-2.1 0-3.84 1.82-3.84 4.06 0 2.23 1.73 4 3.84 4 2.14 0 3.84-1.77 3.84-4zm8.06 10.1l-4.6-4.34c-.33.4-.66.8-1 1.17l4.6 4.34c.28.34.78.3 1.03-.03.3-.32.24-.8-.04-1.14z" stroke="#000" stroke-opacity="0" fill="#fff"/><use xlink:href="#e" transform="matrix(1,0,0,1,470,272.3333333333333) translate(27.025 14.4)"/><use xlink:href="#f" transform="matrix(1,0,0,1,470,272.3333333333333) translate(11.399999999999999 36)"/><path d="M1052.17 103.53a6 6 0 0 1 6-6h148a6 6 0 0 1 6 6v108a6 6 0 0 1-6 6h-148a6 6 0 0 1-6-6z" stroke="#3a414a" fill-opacity="0"/><use xlink:href="#g" transform="matrix(1,0,0,1,1057.1666666666667,102.52880242835977) translate(2.253086419753089 59.02777777777778)"/><use xlink:href="#h" transform="matrix(1,0,0,1,1057.1666666666667,102.52880242835977) translate(82.43827160493827 59.02777777777778)"/><path d="M580.62 231.67h4.4m5.86 0h8.8m5.87 0h8.8m5.86 0h8.8m5.87 0h9.06m6.23 0h9.33m6.2 0h9.34m6.22 0h9.33m6.22 0h9.33m6.22 0h4.67" stroke="#e81313" stroke-width="3" fill="none"/><path d="M564.85 231.67l14.27-4.64v9.27z" stroke="#e81313" stroke-width="3" fill="#e81313"/><path d="M718.54 233.17H717v-3h1.54z" stroke="#e81313" stroke-width=".05" fill="#e81313"/><path d="M1031.17 159.14l-.35.06-4.4.83-4.17.98-4 1.13-3.9 1.26-3.8 1.4-3.74 1.58-3.75 1.77-3.82 2-3.96 2.3-4.22 2.67-4.7 3.26-5.7 4.34-9.8 8.16-18.34 15.6-5.7 4.33-4.68 3.28-4.22 2.68-3.96 2.28-3.82 2-3.76 1.77-3.75 1.6-3.8 1.4-3.87 1.26-4 1.12-4.2.98-4.38.84-4.66.7-5 .5-5.37.35-4.37.1" stroke="#3a414a" stroke-width="3" stroke-linejoin="round" fill="none"/><path d="M1046.86 157.9l-13.86 5.75-.72-9.24z" stroke="#3a414a" stroke-width="3" fill="#3a414a"/><path d="M883 233.17h-1.54v-3H883z" stroke="#3a414a" stroke-width=".05" fill="#3a414a"/><path d="M1052.17 262a6 6 0 0 1 6-6h148a6 6 0 0 1 6 6v108a6 6 0 0 1-6 6h-148a6 6 0 0 1-6-6z" stroke="#3a414a" fill-opacity="0"/><use xlink:href="#i" transform="matrix(1,0,0,1,1057.1666666666667,261.0000000000003) translate(24.061728395061742 48.71527777777778)"/><use xlink:href="#j" transform="matrix(1,0,0,1,1057.1666666666667,261.0000000000003) translate(30.23456790123458 48.71527777777778)"/><use xlink:href="#k" transform="matrix(1,0,0,1,1057.1666666666667,261.0000000000003) translate(51.345679012345684 71.82638888888889)"/><path d="M882.97 231.7l3.68.07 4.8.3 4.5.48 4.22.62 4 .76 3.84.9 3.7 1.03 3.6 1.17 3.5 1.3 3.45 1.46 3.45 1.6 3.47 1.82 3.54 2.05 3.67 2.32 3.9 2.7 4.25 3.23 4.93 4.1 6.6 5.95 27.66 26.46 4.95 4.1 4.26 3.23 3.9 2.7 3.66 2.33 3.54 2.04 3.47 1.82 3.44 1.62 3.47 1.45 3.5 1.3 3.6 1.17 3.68 1.03 3.84.9 2.2.42" stroke="#1071e5" stroke-width="3" stroke-linejoin="round" fill="none"/><path d="M883.04 230.2l-.07 3-1.5-.03v-3z" stroke="#1071e5" stroke-width=".05" fill="#1071e5"/><path d="M1046.87 315.56l-14.63 3.34.84-9.23z" stroke="#1071e5" stroke-width="3" fill="#1071e5"/><path d="M642.1 383.64a6 6 0 0 1 6-6h303.8a6 6 0 0 1 6 6V526.3a6 6 0 0 1-6 6H648.1a6 6 0 0 1-6-6z" stroke="#282c33" stroke-width="3" fill="#dfe3e8"/><use xlink:href="#l" transform="matrix(1,0,0,1,647.0972222222092,382.63655190235266) translate(98.74074074074075 144.59361777777778)"/><use xlink:href="#m" transform="matrix(1,0,0,1,647.0972222222092,382.63655190235266) translate(150.53086419753086 144.59361777777778)"/><path d="M1022.17 62.67a6 6 0 0 1 6-6h208a6 6 0 0 1 6 6v376a6 6 0 0 1-6 6h-208a6 6 0 0 1-6-6z" stroke="#6f7681" stroke-width="3" fill="#fff" fill-opacity=".03"/><path d="M997.17 1.72a6 6 0 0 1 6-6h258a6 6 0 0 1 6 6v51.34a6 6 0 0 1-6 6h-258a6 6 0 0 1-6-6z" stroke="#000" stroke-opacity="0" fill="#fff" fill-opacity="0"/><use xlink:href="#g" transform="matrix(1,0,0,1,1002.166666666667,0.7242715233859229) translate(1.1728395061728634 31.27777777777778)"/><use xlink:href="#n" transform="matrix(1,0,0,1,1002.166666666667,0.7242715233859229) translate(81.35802469135804 31.27777777777778)"/><use xlink:href="#o" transform="matrix(1,0,0,1,1002.166666666667,0.7242715233859229) translate(145.4320987654321 31.27777777777778)"/><use xlink:href="#p" transform="matrix(1,0,0,1,1002.166666666667,0.7242715233859229) translate(157.77777777777777 31.27777777777778)"/><path d="M1374.33 133.83h80v63.33h-80v-63.33z" stroke="#000" stroke-opacity="0" fill="url(#q)"/><path d="M1439.3 176.4c.7 0 1.27.43 1.27 1v8.88c0 .57-.57 1-1.26 1h-13.26c-.53 0-.95-.2-1.16-.56l-18.8-32.12h-7.8c-.37 0-.7-.08-.9-.3-.26-.17-.37-.44-.37-.7v-8.9c0-.55.6-1 1.27-1h16.64c.48 0 .9.23 1.1.58l18.7 32.1zm-1.2 8.92v-6.97h-4.2c-.46 0-.88-.22-1.1-.56l-18.68-32.13h-14.64v6.97h7.4c.53 0 .95.22 1.16.57l18.78 32.12zm-32.85-24.1l7.1 11.64c.15.26.15.57 0 .83l-7.73 13.02c-.2.35-.68.56-1.15.56h-14.12c-.42 0-.84-.17-1.05-.47-.26-.26-.26-.6-.1-.95l14.8-24.62c.2-.35.63-.57 1.1-.57.52 0 .94.22 1.15.57zm-2.57 24.1l7.14-12.02-5.67-9.37-12.86 21.4z" stroke="#000" stroke-opacity="0" fill="#fff"/><path d="M1310 114.67a6 6 0 0 1 6-6h208a6 6 0 0 1 6 6v288a6 6 0 0 1-6 6h-208a6 6 0 0 1-6-6z" fill-opacity="0"/><path d="M1332.47 108.73h11.6m11.62 0h11.6m11.6 0l11.6-.02m11.62 0h11.6m11.6 0h11.62m11.6 0h11.62m11.6 0l11.6-.02m11.62 0h11.6m11.62 0h5.8l.94.06.9.22.88.36.8.5.72.6.6.72.5.8.37.87.23.93v6.02m0 12.04v12.03m0 12.03v12.04m0 12.04l.02 12.04m0 12.04v12.04m0 12.04v12.04m0 12.04v12.04m.02 12.04v12.04m0 12.03v12.04m0 12.04v12.05m.02 12.04v12.03m0 12.04v12.04m0 12.05v6.02l-.07.94-.22.92-.35.87-.5.8-.6.7-.72.62-.8.5-.88.35-.9.22h-5.82m-11.6 0h-11.6m-11.62 0h-11.6m-11.6.02h-11.6m-11.62 0h-11.6m-11.6 0l-11.62.02m-11.6 0h-11.62m-11.6 0h-11.6m-11.62.02h-11.6m-11.62 0h-5.8l-.94-.07-.9-.23-.88-.36-.8-.48-.72-.6-.6-.73-.5-.8-.37-.88-.23-.9v-6.03m0-12.05V373.5m0-12.03v-12.04m0-12.04l-.02-12.05m0-12.04v-12.03m0-12.04V277.2m0-12.04v-12.04m-.02-12.04v-12.04m0-12.04v-12.04m0-12.04v-12.04m-.02-12.04V156.8m0-12.04v-12.03m0-12.04v-6.03l.07-.94.22-.92.35-.86.5-.8.6-.72.72-.6.8-.5.88-.36.9-.22h5.82" stroke="#3a414a" stroke-width="3" fill="none"/><path d="M1285 62.67a6 6 0 0 1 6-6h258a6 6 0 0 1 6 6V114a6 6 0 0 1-6 6h-258a6 6 0 0 1-6-6z" stroke="#000" stroke-opacity="0" fill="#fff" fill-opacity="0"/><use xlink:href="#r" transform="matrix(1,0,0,1,1290,61.66666666666667) translate(38.734567901234556 31.27777777777778)"/><use xlink:href="#s" transform="matrix(1,0,0,1,1290,61.66666666666667) translate(125.09259259259258 31.27777777777778)"/><path d="M1340 248.67a6 6 0 0 1 6-6h148a6 6 0 0 1 6 6v108a6 6 0 0 1-6 6h-148a6 6 0 0 1-6-6z" stroke="#3a414a" fill-opacity="0"/><use xlink:href="#g" transform="matrix(1,0,0,1,1345,247.6666666666669) translate(7.160493827160508 59.02777777777778)"/><use xlink:href="#t" transform="matrix(1,0,0,1,1345,247.6666666666669) translate(87.34567901234568 59.02777777777778)"/><path d="M1233.25 316h104.8" stroke="#1071e5" stroke-width="3" fill="none"/><path d="M1217.48 316l14.27-4.64v9.28z" stroke="#1071e5" stroke-width="3" fill="#1071e5"/><path d="M1339.55 317.5H1338v-3h1.54z" stroke="#1071e5" stroke-width=".05" fill="#1071e5"/><path d="M815.18 200c3.78 0 6.82-3.1 6.82-6.92 0-3.8-3.04-6.9-6.82-6.9-3.78 0-6.82 3.1-6.82 6.9 0 3.82 3.04 6.92 6.82 6.92z" stroke="#000" stroke-opacity="0" stroke-width=".75" fill="#ff8585"/><path d="M796.96 198.46c2.95 0 5.33-2.4 5.33-5.38 0-2.97-2.4-5.38-5.34-5.38s-5.32 2.4-5.32 5.38 2.38 5.38 5.32 5.38z" stroke="#000" stroke-opacity="0" stroke-width=".75" fill="#f5d159"/><path d="M781.78 196.93c2.12 0 3.8-1.73 3.8-3.85 0-2.1-1.68-3.84-3.8-3.84-2.06 0-3.78 1.73-3.78 3.84 0 2.12 1.72 3.85 3.78 3.85z" stroke="#000" stroke-opacity="0" stroke-width=".75" fill="#90c1fe"/><path d="M1147.35 133.83c3.78 0 6.82-3.1 6.82-6.9 0-3.83-3.04-6.93-6.82-6.93-3.8 0-6.82 3.1-6.82 6.92 0 3.8 3.03 6.9 6.82 6.9z" stroke="#000" stroke-opacity="0" stroke-width=".75" fill="#ff8585"/><path d="M1129.13 132.3c2.95 0 5.32-2.4 5.32-5.38s-2.37-5.38-5.32-5.38-5.32 2.4-5.32 5.38c0 2.97 2.38 5.38 5.33 5.38z" stroke="#000" stroke-opacity="0" stroke-width=".75" fill="#f5d159"/><path d="M1113.95 130.76c2.1 0 3.78-1.73 3.78-3.84 0-2.12-1.67-3.85-3.78-3.85-2.07 0-3.78 1.73-3.78 3.85 0 2.1 1.7 3.84 3.78 3.84z" stroke="#000" stroke-opacity="0" stroke-width=".75" fill="#90c1fe"/><path d="M1429.5 277.16c3.8 0 6.83-3.1 6.83-6.9 0-3.83-3.03-6.93-6.82-6.93-3.77 0-6.8 3.1-6.8 6.92s3.03 6.9 6.8 6.9z" stroke="#000" stroke-opacity="0" stroke-width=".75" fill="#ff8585"/><path d="M1411.3 275.63c2.95 0 5.32-2.4 5.32-5.38 0-2.97-2.37-5.38-5.32-5.38s-5.33 2.4-5.33 5.38c0 2.97 2.38 5.38 5.33 5.38z" stroke="#000" stroke-opacity="0" stroke-width=".75" fill="#f5d159"/><path d="M1396.12 274.1c2.1 0 3.78-1.73 3.78-3.85s-1.67-3.85-3.78-3.85c-2.07 0-3.8 1.73-3.8 3.85s1.73 3.84 3.8 3.84z" stroke="#000" stroke-opacity="0" stroke-width=".75" fill="#90c1fe"/><path d="M1050.82 149.12l-34.73-19.53-22.6-11.47-17.78-8.07-15.4-6.24-14.22-5.07-13.75-4.26-13.83-3.67-14.44-3.17-15.67-2.76-17.77-2.37-21.35-1.93-27.77-1.33-19.73-.33-38.82.58-32.98 1.87-27.48 2.7-22.86 3.23-19.1 3.52-16.06 3.66-13.63 3.73-11.66 3.7-10.06 3.68-8.73 3.62-7.63 3.53-6.72 3.47-5.95 3.4-5.3 3.3-4.75 3.26-4.26 3.2-3.85 3.14-3.5 3.1-3.15 3.06-2.88 3.04-2.63 3-2.4 3-2.2 3-2.03 3-1.84 3-1.68 3.02-1.54 3.05-1.4 3.08-1.25 3.14-1.13 3.2-1 3.26-.9 3.35-.6 2.8" stroke="#fc9432" stroke-width="2" stroke-linejoin="round" fill="none"/><path d="M1051.7 148.46v2.3l-1.4-.8 1-1.73z" stroke="#fc9432" stroke-width=".05" fill="#fc9432"/><path d="M530.32 196.78l-3.2-14.65 9.22.9z" stroke="#fc9432" stroke-width="2" fill="#fc9432"/><path d="M1132.2 263.33c8.26 0 15.05 6.64 15.05 14.75 0 8.2-6.8 14.75-15.23 14.75-8.27 0-14.94-6.67-14.94-14.87 0-8.05 6.82-14.63 15.12-14.63zm-4.6 5.16c.22.94.04 1.8-.26 2.62-.18.6-.45 1.15-.6 1.74-.28.97-.58 1.98-.7 2.98-.15 1.4.42 2.68 1.4 3.95l-4.5-.95c0 .14 0 .2.02.23.43 1.24 1.18 2.27 2.03 3.28.08.08.26.14.4.14h13.5c.12 0 .33-.03.4-.1.95-1.02 1.7-2.14 2.16-3.58l-4.77.94c.3-.62.66-1.15.87-1.74.72-2 .42-3.95-.6-5.78-.82-1.47-1.58-2.92-1.15-4.7-.88.84-1.2 1.9-1.4 3-.2 1.08-.32 2.17-.5 3.26 0-.03-.03-.06-.03-.1-.04-.1-.07-.22-.07-.34-.1-1.77-.46-3.5-1.2-5.16-.43-.97-.95-1.98-.46-3.13-.34.15-.6.33-.82.56-.57.68-.8 1.48-.9 2.36-.03.76-.12 1.53-.27 2.3-.16.76-.37 1.56-.9 2.26-.22-1.53-.25-3.06-1.67-4.07zm11.6 15.36h-14.1v2.42h14.1v-2.42zm-11.3 3.66c-.02 2 2.06 3.5 4.63 3.4 2.14-.1 4-1.75 3.86-3.4h-8.5z" stroke="#000" stroke-opacity="0" stroke-width=".35" fill="#e75225"/><path d="M1357.87 554.8h3.1m4.16 0h6.23m4.15 0h6.24m4.15 0h6.22m4.16 0h6.22m4.16 0h6.23m4.14 0h6.23m4.15 0h6.23m4.15 0h3.1M1357.9 554.8h-1.03" stroke="#e81313" stroke-width="2" fill="none"/><path d="M1456.18 554.8l-14.27 4.62v-9.27z" stroke="#e81313" stroke-width="2" fill="#e81313"/><path d="M1357.87 584.38h83.04M1357.9 584.38h-1.03" stroke="#1071e5" stroke-width="2" fill="none"/><path d="M1456.18 584.38L1441.9 589v-9.26z" stroke="#1071e5" stroke-width="2" fill="#1071e5"/><path d="M1357.87 620.03h83.04M1357.9 620.03h-1.03" stroke="#fc9432" stroke-width="2" fill="none"/><path d="M1456.18 620.03l-14.27 4.63v-9.27z" stroke="#fc9432" stroke-width="2" fill="#fc9432"/><path d="M1357.87 648.28h83.04M1357.9 648.28h-1.03" stroke="#282c33" stroke-width="2" fill="none"/><path d="M1456.18 648.28l-14.27 4.64v-9.27z" stroke="#282c33" stroke-width="2" fill="#282c33"/><path d="M1494.67 532.82a6 6 0 0 1 6-6h238.88a6 6 0 0 1 6 6v46a6 6 0 0 1-6 6h-238.88a6 6 0 0 1-6-6z" stroke="#000" stroke-opacity="0" stroke-width="2" fill="#fff" fill-opacity="0"/><use xlink:href="#u" transform="matrix(1,0,0,1,1499.6666666666667,531.8216850800867) translate(2.1851851851852473 25.666666666666664)"/><use xlink:href="#v" transform="matrix(1,0,0,1,1499.6666666666667,531.8216850800867) translate(5.88888888888895 25.666666666666664)"/><use xlink:href="#w" transform="matrix(1,0,0,1,1499.6666666666667,531.8216850800867) translate(45.03703703703708 25.666666666666664)"/><use xlink:href="#x" transform="matrix(1,0,0,1,1499.6666666666667,531.8216850800867) translate(125.77777777777779 25.666666666666664)"/><use xlink:href="#y" transform="matrix(1,0,0,1,1499.6666666666667,531.8216850800867) translate(176.07407407407405 25.666666666666664)"/><path d="M1489.33 566.2a6 6 0 0 1 6-6h187.63a6 6 0 0 1 6 6v37.03a6 6 0 0 1-6 6h-187.63a6 6 0 0 1-6-6z" stroke="#000" stroke-opacity="0" stroke-width="2" fill="#fff" fill-opacity="0"/><use xlink:href="#z" transform="matrix(1,0,0,1,1494.3333333333335,565.2081745595772) translate(9.981481481481524 23.166666666666664)"/><use xlink:href="#A" transform="matrix(1,0,0,1,1494.3333333333335,565.2081745595772) translate(52.83333333333336 23.166666666666664)"/><use xlink:href="#B" transform="matrix(1,0,0,1,1494.3333333333335,565.2081745595772) translate(133.42592592592592 23.166666666666664)"/><path d="M1494.67 598.42a6 6 0 0 1 6-6h279.96a6 6 0 0 1 6 6v37.02a6 6 0 0 1-6 6h-279.96a6 6 0 0 1-6-6z" stroke="#000" stroke-opacity="0" stroke-width="2" fill="#fff" fill-opacity="0"/><use xlink:href="#C" transform="matrix(1,0,0,1,1499.6666666666667,597.4193225846788) translate(4.925925925925981 23.166666666666664)"/><use xlink:href="#D" transform="matrix(1,0,0,1,1499.6666666666667,597.4193225846788) translate(44.07407407407411 23.166666666666664)"/><use xlink:href="#E" transform="matrix(1,0,0,1,1499.6666666666667,597.4193225846788) translate(124.81481481481481 23.166666666666664)"/><use xlink:href="#F" transform="matrix(1,0,0,1,1499.6666666666667,597.4193225846788) translate(175.1111111111111 23.166666666666664)"/><use xlink:href="#G" transform="matrix(1,0,0,1,1499.6666666666667,597.4193225846788) translate(200.22222222222217 23.166666666666664)"/><path d="M1494.67 626.03a6 6 0 0 1 6-6h134.3a6 6 0 0 1 6 6v37.02a6 6 0 0 1-6 6h-134.3a6 6 0 0 1-6-6z" stroke="#000" stroke-opacity="0" stroke-width="2" fill="#fff" fill-opacity="0"/><g><use xlink:href="#H" transform="matrix(1,0,0,1,1499.6666666666667,625.0287725662217) translate(6.851851851851876 23.166666666666664)"/><use xlink:href="#I" transform="matrix(1,0,0,1,1499.6666666666667,625.0287725662217) translate(43.07407407407408 23.166666666666664)"/></g><path d="M1494.67 510.75a6 6 0 0 1 6-6h182.3a6 6 0 0 1 6 6v27.33a6 6 0 0 1-6 6h-182.3a6 6 0 0 1-6-6z" stroke="#000" stroke-opacity="0" stroke-width="2" fill="#fff" fill-opacity="0"/><g><use xlink:href="#u" transform="matrix(1,0,0,1,1499.6666666666667,509.7463805396435) translate(3.0000000000000426 18.166666666666664)"/><use xlink:href="#J" transform="matrix(1,0,0,1,1499.6666666666667,509.7463805396435) translate(6.703703703703745 18.166666666666664)"/><use xlink:href="#K" transform="matrix(1,0,0,1,1499.6666666666667,509.7463805396435) translate(54.81481481481484 18.166666666666664)"/><use xlink:href="#L" transform="matrix(1,0,0,1,1499.6666666666667,509.7463805396435) translate(135.4074074074074 18.166666666666664)"/></g><path d="M1356.56 523.3h84.4M1356.58 523.3h-1.02" stroke="#e81313" stroke-width="2" fill="none"/><path d="M1456.24 523.3l-14.27 4.64v-9.27z" stroke="#e81313" stroke-width="2" fill="#e81313"/><path d="M838.22 434.97a6 6 0 0 1 6-6h77.34a6 6 0 0 1 6 6v40a6 6 0 0 1-6 6h-77.34a6 6 0 0 1-6-6z" fill="#dfe3e8"/><path d="M854.24 429.03h9.4m6.26 0l9.4-.02m6.25 0h9.4m6.25 0l9.4-.02m6.26 0h4.7l.93.06.9.22.88.36.8.5.72.6.6.72.5.8.36.88.22.9v4.1m.02 5.46v8.2m.02 5.45l.02 8.2m0 5.45l.02 4.1-.08.93-.22.92-.36.87-.5.8-.6.7-.72.62-.8.5-.87.36-.9.22h-4.7m-6.26 0l-9.4.02m-6.26 0h-9.4m-6.25.02h-9.4m-6.26 0l-9.4.02m-6.25 0h-4.7l-.94-.06-.9-.22-.88-.36-.8-.5-.72-.6-.6-.72-.5-.8-.36-.88-.22-.9v-4.1m-.02-5.46l-.02-8.2m0-5.45l-.02-8.18m0-5.46l-.02-4.1.08-.93.22-.9.36-.88.5-.8.6-.72.72-.6.8-.5.87-.37.9-.22h4.7" stroke="#282c33" stroke-width="3" fill="none"/><g><use xlink:href="#M" transform="matrix(1,0,0,1,843.2222222221714,433.96988523568604) translate(13.68518518518519 41.931804444444445)"/></g><path d="M904.74 452.97c3.78 0 6.82-3.1 6.82-6.92 0-3.8-3.04-6.9-6.82-6.9-3.8 0-6.82 3.1-6.82 6.9 0 3.82 3.03 6.92 6.82 6.92z" stroke="#000" stroke-opacity="0" stroke-width=".75" fill="#ff8585"/><path d="M886.52 451.43c2.95 0 5.32-2.4 5.32-5.38 0-2.97-2.37-5.38-5.32-5.38s-5.32 2.4-5.32 5.38 2.37 5.38 5.32 5.38z" stroke="#000" stroke-opacity="0" stroke-width=".75" fill="#f5d159"/><path d="M871.34 449.9c2.1 0 3.78-1.73 3.78-3.85 0-2.1-1.67-3.84-3.78-3.84-2.07 0-3.78 1.74-3.78 3.85 0 2.12 1.7 3.85 3.78 3.85z" stroke="#000" stroke-opacity="0" stroke-width=".75" fill="#90c1fe"/><path d="M700.22 434.97a6 6 0 0 1 6-6h77.34a6 6 0 0 1 6 6v40a6 6 0 0 1-6 6h-77.34a6 6 0 0 1-6-6z" stroke="#282c33" stroke-width="3" fill="#dfe3e8"/><g><use xlink:href="#N" transform="matrix(1,0,0,1,705.2222222222239,433.96988523568604) translate(24.033950617283956 22.779804444444444)"/><use xlink:href="#O" transform="matrix(1,0,0,1,705.2222222222239,433.96988523568604) translate(6.361111111111114 41.4464711111111)"/></g><path d="M799.98 294.13l-.08 3.9-.28 4.48-.43 4.13-.58 3.84-.7 3.62-.8 3.4-.9 3.3-1.04 3.18-1.16 3.1-1.3 3.1-1.46 3.1-1.66 3.17-1.92 3.34-2.3 3.62-2.97 4.25-4.58 6-15.34 19.3-2.96 4.24-2.3 3.65-1.93 3.33-1.67 3.18-1.46 3.1-1.3 3.08-1.16 3.12-1.02 3.18-.92 3.28-.8 3.43-.5 2.55" stroke="#e81313" stroke-width="2" stroke-linejoin="round" fill="none"/><path d="M800.98 294.18l-2-.04.02-1h2z" stroke="#e81313" stroke-width=".05" fill="#e81313"/><path d="M745.17 424.28l-3.4-14.6 9.24.8z" stroke="#e81313" stroke-width="2" fill="#e81313"/><path d="M800.02 294.13l.05 2.3.2 3.13.3 2.95.42 2.82.5 2.7.6 2.6.7 2.5.8 2.47.9 2.4 1 2.38 1.13 2.37 1.24 2.38 1.38 2.4 1.55 2.43 1.75 2.52 2 2.62 2.3 2.8 2.74 3.03 3.36 3.43 4.5 4.2 7.74 6.66 20.24 16.84 4.5 4.2 3.36 3.45 2.74 3.05 2.3 2.78 2 2.63 1.75 2.5 1.54 2.45 1.38 2.4 1.24 2.4 1.12 2.36 1 2.38.9 2.4.8 2.47.47 1.7" stroke="#e81313" stroke-width="2" stroke-linejoin="round" fill="none"/><path d="M801.02 294.14l-2 .04-.02-1.05h2z" stroke="#e81313" stroke-width=".05" fill="#e81313"/><path d="M882.48 424.3l-6.4-13.57 9.2-1.17z" stroke="#e81313" stroke-width="2" fill="#e81313"/><defs><path fill="#3a414a" d="M205 0l-28-72H64L36 0H1l101-248h38L239 0h-34zm-38-99l-47-123c-12 45-31 82-46 123h93" id="P"/><path fill="#3a414a" d="M266 0h-40l-56-210L115 0H75L2-248h35L96-30l15-64 43-154h32l59 218 59-218h35" id="Q"/><path fill="#3a414a" d="M185-189c-5-48-123-54-124 2 14 75 158 14 163 119 3 78-121 87-175 55-17-10-28-26-33-46l33-7c5 56 141 63 141-1 0-78-155-14-162-118-5-82 145-84 179-34 5 7 8 16 11 25" id="R"/><g id="a"><use transform="matrix(0.06172839506172839,0,0,0.06172839506172839,0,0)" xlink:href="#P"/><use transform="matrix(0.06172839506172839,0,0,0.06172839506172839,14.012345679012345,0)" xlink:href="#Q"/><use transform="matrix(0.06172839506172839,0,0,0.06172839506172839,34.938271604938265,0)" xlink:href="#R"/></g><path fill="#3a414a" d="M30 0v-248h187v28H63v79h144v27H63v87h162V0H30" id="S"/><path fill="#3a414a" d="M141 0L90-78 38 0H4l68-98-65-92h35l48 74 47-74h35l-64 92 68 98h-35" id="T"/><path fill="#3a414a" d="M115-194c55 1 70 41 70 98S169 2 115 4C84 4 66-9 55-30l1 105H24l-1-265h31l2 30c10-21 28-34 59-34zm-8 174c40 0 45-34 45-75s-6-73-45-74c-42 0-51 32-51 76 0 43 10 73 51 73" id="U"/><path fill="#3a414a" d="M100-194c62-1 85 37 85 99 1 63-27 99-86 99S16-35 15-95c0-66 28-99 85-99zM99-20c44 1 53-31 53-75 0-43-8-75-51-75s-53 32-53 75 10 74 51 75" id="V"/><path fill="#3a414a" d="M114-163C36-179 61-72 57 0H25l-1-190h30c1 12-1 29 2 39 6-27 23-49 58-41v29" id="W"/><path fill="#3a414a" d="M59-47c-2 24 18 29 38 22v24C64 9 27 4 27-40v-127H5v-23h24l9-43h21v43h35v23H59v120" id="X"/><path fill="#3a414a" d="M100-194c63 0 86 42 84 106H49c0 40 14 67 53 68 26 1 43-12 49-29l28 8c-11 28-37 45-77 45C44 4 14-33 15-96c1-61 26-98 85-98zm52 81c6-60-76-77-97-28-3 7-6 17-6 28h103" id="Y"/><g id="b"><use transform="matrix(0.06172839506172839,0,0,0.06172839506172839,0,0)" xlink:href="#S"/><use transform="matrix(0.06172839506172839,0,0,0.06172839506172839,14.814814814814813,0)" xlink:href="#T"/><use transform="matrix(0.06172839506172839,0,0,0.06172839506172839,25.925925925925924,0)" xlink:href="#U"/><use transform="matrix(0.06172839506172839,0,0,0.06172839506172839,38.2716049382716,0)" xlink:href="#V"/><use transform="matrix(0.06172839506172839,0,0,0.06172839506172839,50.61728395061728,0)" xlink:href="#W"/><use transform="matrix(0.06172839506172839,0,0,0.06172839506172839,57.962962962962955,0)" xlink:href="#X"/><use transform="matrix(0.06172839506172839,0,0,0.06172839506172839,64.1358024691358,0)" xlink:href="#Y"/><use transform="matrix(0.06172839506172839,0,0,0.06172839506172839,76.48148148148148,0)" xlink:href="#W"/></g><path fill="#3a414a" d="M127-220V0H93v-220H8v-28h204v28h-85" id="Z"/><path fill="#3a414a" d="M141-36C126-15 110 5 73 4 37 3 15-17 15-53c-1-64 63-63 125-63 3-35-9-54-41-54-24 1-41 7-42 31l-33-3c5-37 33-52 76-52 45 0 72 20 72 64v82c-1 20 7 32 28 27v20c-31 9-61-2-59-35zM48-53c0 20 12 33 32 33 41-3 63-29 60-74-43 2-92-5-92 41" id="aa"/><path fill="#3a414a" d="M135-143c-3-34-86-38-87 0 15 53 115 12 119 90S17 21 10-45l28-5c4 36 97 45 98 0-10-56-113-15-118-90-4-57 82-63 122-42 12 7 21 19 24 35" id="ab"/><path fill="#3a414a" d="M143 0L79-87 56-68V0H24v-261h32v163l83-92h37l-77 82L181 0h-38" id="ac"/><g id="c"><use transform="matrix(0.06172839506172839,0,0,0.06172839506172839,0,0)" xlink:href="#Z"/><use transform="matrix(0.06172839506172839,0,0,0.06172839506172839,11.049382716049381,0)" xlink:href="#aa"/><use transform="matrix(0.06172839506172839,0,0,0.06172839506172839,23.39506172839506,0)" xlink:href="#ab"/><use transform="matrix(0.06172839506172839,0,0,0.06172839506172839,34.50617283950617,0)" xlink:href="#ac"/></g><linearGradient gradientUnits="userSpaceOnUse" id="d" x1="500" y1="263.33" x2="560" y2="200"><stop offset="0%" stop-color="#b0084d"/><stop offset="100%" stop-color="#ff4f8b"/></linearGradient><path d="M205 0l-28-72H64L36 0H1l101-248h38L239 0h-34zm-38-99l-47-123c-12 45-31 82-46 123h93" id="ad"/><path d="M210-169c-67 3-38 105-44 169h-31v-121c0-29-5-50-35-48C34-165 62-65 56 0H25l-1-190h30c1 10-1 24 2 32 10-44 99-50 107 0 11-21 27-35 58-36 85-2 47 119 55 194h-31v-121c0-29-5-49-35-48" id="ae"/><path d="M141-36C126-15 110 5 73 4 37 3 15-17 15-53c-1-64 63-63 125-63 3-35-9-54-41-54-24 1-41 7-42 31l-33-3c5-37 33-52 76-52 45 0 72 20 72 64v82c-1 20 7 32 28 27v20c-31 9-61-2-59-35zM48-53c0 20 12 33 32 33 41-3 63-29 60-74-43 2-92-5-92 41" id="af"/><path d="M9 0v-24l116-142H16v-24h144v24L44-24h123V0H9" id="ag"/><path d="M100-194c62-1 85 37 85 99 1 63-27 99-86 99S16-35 15-95c0-66 28-99 85-99zM99-20c44 1 53-31 53-75 0-43-8-75-51-75s-53 32-53 75 10 74 51 75" id="ah"/><path d="M117-194c89-4 53 116 60 194h-32v-121c0-31-8-49-39-48C34-167 62-67 57 0H25l-1-190h30c1 10-1 24 2 32 11-22 29-35 61-36" id="ai"/><g id="e"><use transform="matrix(0.05,0,0,0.05,0,0)" xlink:href="#ad"/><use transform="matrix(0.05,0,0,0.05,12,0)" xlink:href="#ae"/><use transform="matrix(0.05,0,0,0.05,26.950000000000003,0)" xlink:href="#af"/><use transform="matrix(0.05,0,0,0.05,36.95,0)" xlink:href="#ag"/><use transform="matrix(0.05,0,0,0.05,45.95,0)" xlink:href="#ah"/><use transform="matrix(0.05,0,0,0.05,55.95,0)" xlink:href="#ai"/></g><path d="M212-179c-10-28-35-45-73-45-59 0-87 40-87 99 0 60 29 101 89 101 43 0 62-24 78-52l27 14C228-24 195 4 139 4 59 4 22-46 18-125c-6-104 99-153 187-111 19 9 31 26 39 46" id="aj"/><path d="M24 0v-261h32V0H24" id="ak"/><path d="M84 4C-5 8 30-112 23-190h32v120c0 31 7 50 39 49 72-2 45-101 50-169h31l1 190h-30c-1-10 1-25-2-33-11 22-28 36-60 37" id="al"/><path d="M85-194c31 0 48 13 60 33l-1-100h32l1 261h-30c-2-10 0-23-3-31C134-8 116 4 85 4 32 4 16-35 15-94c0-66 23-100 70-100zm9 24c-40 0-46 34-46 75 0 40 6 74 45 74 42 0 51-32 51-76 0-42-9-74-50-73" id="am"/><path d="M266 0h-40l-56-210L115 0H75L2-248h35L96-30l15-64 43-154h32l59 218 59-218h35" id="an"/><path d="M59-47c-2 24 18 29 38 22v24C64 9 27 4 27-40v-127H5v-23h24l9-43h21v43h35v23H59v120" id="ao"/><path d="M96-169c-40 0-48 33-48 73s9 75 48 75c24 0 41-14 43-38l32 2c-6 37-31 61-74 61-59 0-76-41-82-99-10-93 101-131 147-64 4 7 5 14 7 22l-32 3c-4-21-16-35-41-35" id="ap"/><path d="M106-169C34-169 62-67 57 0H25v-261h32l-1 103c12-21 28-36 61-36 89 0 53 116 60 194h-32v-121c2-32-8-49-39-48" id="aq"/><g id="f"><use transform="matrix(0.05,0,0,0.05,0,0)" xlink:href="#aj"/><use transform="matrix(0.05,0,0,0.05,12.950000000000001,0)" xlink:href="#ak"/><use transform="matrix(0.05,0,0,0.05,16.900000000000002,0)" xlink:href="#ah"/><use transform="matrix(0.05,0,0,0.05,26.900000000000002,0)" xlink:href="#al"/><use transform="matrix(0.05,0,0,0.05,36.900000000000006,0)" xlink:href="#am"/><use transform="matrix(0.05,0,0,0.05,46.900000000000006,0)" xlink:href="#an"/><use transform="matrix(0.05,0,0,0.05,63.2,0)" xlink:href="#af"/><use transform="matrix(0.05,0,0,0.05,73.2,0)" xlink:href="#ao"/><use transform="matrix(0.05,0,0,0.05,78.2,0)" xlink:href="#ap"/><use transform="matrix(0.05,0,0,0.05,87.2,0)" xlink:href="#aq"/></g><g id="g"><use transform="matrix(0.06172839506172839,0,0,0.06172839506172839,0,0)" xlink:href="#P"/><use transform="matrix(0.06172839506172839,0,0,0.06172839506172839,14.814814814814813,0)" xlink:href="#ab"/><use transform="matrix(0.06172839506172839,0,0,0.06172839506172839,25.925925925925924,0)" xlink:href="#ab"/><use transform="matrix(0.06172839506172839,0,0,0.06172839506172839,37.03703703703704,0)" xlink:href="#Y"/><use transform="matrix(0.06172839506172839,0,0,0.06172839506172839,49.382716049382715,0)" xlink:href="#W"/><use transform="matrix(0.06172839506172839,0,0,0.06172839506172839,56.72839506172839,0)" xlink:href="#X"/><use transform="matrix(0.06172839506172839,0,0,0.06172839506172839,62.901234567901234,0)" xlink:href="#ab"/></g><path fill="#3a414a" d="M108 0H70L1-190h34L89-25l56-165h34" id="ar"/><g id="h"><use transform="matrix(0.06172839506172839,0,0,0.06172839506172839,0,0)" xlink:href="#R"/><use transform="matrix(0.06172839506172839,0,0,0.06172839506172839,14.814814814814813,0)" xlink:href="#Y"/><use transform="matrix(0.06172839506172839,0,0,0.06172839506172839,27.160493827160494,0)" xlink:href="#W"/><use transform="matrix(0.06172839506172839,0,0,0.06172839506172839,34.50617283950617,0)" xlink:href="#ar"/><use transform="matrix(0.06172839506172839,0,0,0.06172839506172839,45.61728395061728,0)" xlink:href="#Y"/><use transform="matrix(0.06172839506172839,0,0,0.06172839506172839,57.962962962962955,0)" xlink:href="#W"/></g><path fill="#3a414a" d="M30-248c87 1 191-15 191 75 0 78-77 80-158 76V0H30v-248zm33 125c57 0 124 11 124-50 0-59-68-47-124-48v98" id="as"/><path fill="#3a414a" d="M210-169c-67 3-38 105-44 169h-31v-121c0-29-5-50-35-48C34-165 62-65 56 0H25l-1-190h30c1 10-1 24 2 32 10-44 99-50 107 0 11-21 27-35 58-36 85-2 47 119 55 194h-31v-121c0-29-5-49-35-48" id="at"/><path fill="#3a414a" d="M106-169C34-169 62-67 57 0H25v-261h32l-1 103c12-21 28-36 61-36 89 0 53 116 60 194h-32v-121c2-32-8-49-39-48" id="au"/><path fill="#3a414a" d="M84 4C-5 8 30-112 23-190h32v120c0 31 7 50 39 49 72-2 45-101 50-169h31l1 190h-30c-1-10 1-25-2-33-11 22-28 36-60 37" id="av"/><g id="j"><use transform="matrix(0.0493827160493827,0,0,0.0493827160493827,0,0)" xlink:href="#as"/><use transform="matrix(0.0493827160493827,0,0,0.0493827160493827,11.851851851851848,0)" xlink:href="#W"/><use transform="matrix(0.0493827160493827,0,0,0.0493827160493827,17.72839506172839,0)" xlink:href="#V"/><use transform="matrix(0.0493827160493827,0,0,0.0493827160493827,27.60493827160493,0)" xlink:href="#at"/><use transform="matrix(0.0493827160493827,0,0,0.0493827160493827,42.37037037037035,0)" xlink:href="#Y"/><use transform="matrix(0.0493827160493827,0,0,0.0493827160493827,52.24691358024688,0)" xlink:href="#X"/><use transform="matrix(0.0493827160493827,0,0,0.0493827160493827,57.18518518518517,0)" xlink:href="#au"/><use transform="matrix(0.0493827160493827,0,0,0.0493827160493827,67.0617283950617,0)" xlink:href="#Y"/><use transform="matrix(0.0493827160493827,0,0,0.0493827160493827,76.93827160493825,0)" xlink:href="#av"/><use transform="matrix(0.0493827160493827,0,0,0.0493827160493827,86.8148148148148,0)" xlink:href="#ab"/></g><path fill="#3a414a" d="M30-248c118-7 216 8 213 122C240-48 200 0 122 0H30v-248zM63-27c89 8 146-16 146-99s-60-101-146-95v194" id="aw"/><path fill="#3a414a" d="M160-131c35 5 61 23 61 61C221 17 115-2 30 0v-248c76 3 177-17 177 60 0 33-19 50-47 57zm-97-11c50-1 110 9 110-42 0-47-63-36-110-37v79zm0 115c55-2 124 14 124-45 0-56-70-42-124-44v89" id="ax"/><g id="k"><use transform="matrix(0.0493827160493827,0,0,0.0493827160493827,0,0)" xlink:href="#Z"/><use transform="matrix(0.0493827160493827,0,0,0.0493827160493827,10.814814814814811,0)" xlink:href="#R"/><use transform="matrix(0.0493827160493827,0,0,0.0493827160493827,22.666666666666657,0)" xlink:href="#aw"/><use transform="matrix(0.0493827160493827,0,0,0.0493827160493827,35.45679012345678,0)" xlink:href="#ax"/></g><path fill="#3a414a" d="M212-179c-10-28-35-45-73-45-59 0-87 40-87 99 0 60 29 101 89 101 43 0 62-24 78-52l27 14C228-24 195 4 139 4 59 4 22-46 18-125c-6-104 99-153 187-111 19 9 31 26 39 46" id="ay"/><g id="l"><use transform="matrix(0.06172839506172839,0,0,0.06172839506172839,0,0)" xlink:href="#S"/><use transform="matrix(0.06172839506172839,0,0,0.06172839506172839,14.814814814814813,0)" xlink:href="#ay"/><use transform="matrix(0.06172839506172839,0,0,0.06172839506172839,30.80246913580247,0)" xlink:href="#R"/></g><g id="m"><use transform="matrix(0.06172839506172839,0,0,0.06172839506172839,0,0)" xlink:href="#Z"/><use transform="matrix(0.06172839506172839,0,0,0.06172839506172839,11.049382716049381,0)" xlink:href="#aa"/><use transform="matrix(0.06172839506172839,0,0,0.06172839506172839,23.39506172839506,0)" xlink:href="#ab"/><use transform="matrix(0.06172839506172839,0,0,0.06172839506172839,34.50617283950617,0)" xlink:href="#ac"/><use transform="matrix(0.06172839506172839,0,0,0.06172839506172839,45.61728395061728,0)" xlink:href="#ab"/></g><path fill="#3a414a" d="M24 0v-261h32V0H24" id="az"/><path fill="#3a414a" d="M85-194c31 0 48 13 60 33l-1-100h32l1 261h-30c-2-10 0-23-3-31C134-8 116 4 85 4 32 4 16-35 15-94c0-66 23-100 70-100zm9 24c-40 0-46 34-46 75 0 40 6 74 45 74 42 0 51-32 51-76 0-42-9-74-50-73" id="aA"/><g id="n"><use transform="matrix(0.06172839506172839,0,0,0.06172839506172839,0,0)" xlink:href="#ay"/><use transform="matrix(0.06172839506172839,0,0,0.06172839506172839,15.987654320987653,0)" xlink:href="#az"/><use transform="matrix(0.06172839506172839,0,0,0.06172839506172839,20.864197530864196,0)" xlink:href="#V"/><use transform="matrix(0.06172839506172839,0,0,0.06172839506172839,33.20987654320987,0)" xlink:href="#av"/><use transform="matrix(0.06172839506172839,0,0,0.06172839506172839,45.55555555555555,0)" xlink:href="#aA"/></g><path fill="#3a414a" d="M0 4l72-265h28L28 4H0" id="aB"/><use transform="matrix(0.06172839506172839,0,0,0.06172839506172839,0,0)" xlink:href="#aB" id="o"/><path fill="#3a414a" d="M117-194c89-4 53 116 60 194h-32v-121c0-31-8-49-39-48C34-167 62-67 57 0H25l-1-190h30c1 10-1 24 2 32 11-22 29-35 61-36" id="aC"/><path fill="#3a414a" d="M24-231v-30h32v30H24zM24 0v-190h32V0H24" id="aD"/><g id="p"><use transform="matrix(0.06172839506172839,0,0,0.06172839506172839,0,0)" xlink:href="#S"/><use transform="matrix(0.06172839506172839,0,0,0.06172839506172839,14.814814814814813,0)" xlink:href="#aC"/><use transform="matrix(0.06172839506172839,0,0,0.06172839506172839,27.160493827160494,0)" xlink:href="#X"/><use transform="matrix(0.06172839506172839,0,0,0.06172839506172839,33.333333333333336,0)" xlink:href="#Y"/><use transform="matrix(0.06172839506172839,0,0,0.06172839506172839,45.67901234567901,0)" xlink:href="#W"/><use transform="matrix(0.06172839506172839,0,0,0.06172839506172839,53.02469135802469,0)" xlink:href="#U"/><use transform="matrix(0.06172839506172839,0,0,0.06172839506172839,65.37037037037037,0)" xlink:href="#W"/><use transform="matrix(0.06172839506172839,0,0,0.06172839506172839,72.71604938271605,0)" xlink:href="#aD"/><use transform="matrix(0.06172839506172839,0,0,0.06172839506172839,77.5925925925926,0)" xlink:href="#ab"/><use transform="matrix(0.06172839506172839,0,0,0.06172839506172839,88.70370370370371,0)" xlink:href="#Y"/></g><linearGradient gradientUnits="userSpaceOnUse" id="q" x1="1374.33" y1="197.16" x2="1454.33" y2="133.83"><stop offset="0%" stop-color="#c8511b"/><stop offset="100%" stop-color="#f90"/></linearGradient><path fill="#3a414a" d="M30 0v-248h33v221h125V0H30" id="aE"/><path fill="#3a414a" d="M115-194c53 0 69 39 70 98 0 66-23 100-70 100C84 3 66-7 56-30L54 0H23l1-261h32v101c10-23 28-34 59-34zm-8 174c40 0 45-34 45-75 0-40-5-75-45-74-42 0-51 32-51 76 0 43 10 73 51 73" id="aF"/><g id="r"><use transform="matrix(0.06172839506172839,0,0,0.06172839506172839,0,0)" xlink:href="#aE"/><use transform="matrix(0.06172839506172839,0,0,0.06172839506172839,12.345679012345679,0)" xlink:href="#aa"/><use transform="matrix(0.06172839506172839,0,0,0.06172839506172839,24.691358024691358,0)" xlink:href="#at"/><use transform="matrix(0.06172839506172839,0,0,0.06172839506172839,43.148148148148145,0)" xlink:href="#aF"/><use transform="matrix(0.06172839506172839,0,0,0.06172839506172839,55.49382716049382,0)" xlink:href="#aA"/><use transform="matrix(0.06172839506172839,0,0,0.06172839506172839,67.8395061728395,0)" xlink:href="#aa"/></g><path fill="#3a414a" d="M63-220v92h138v28H63V0H30v-248h175v28H63" id="aG"/><path fill="#3a414a" d="M96-169c-40 0-48 33-48 73s9 75 48 75c24 0 41-14 43-38l32 2c-6 37-31 61-74 61-59 0-76-41-82-99-10-93 101-131 147-64 4 7 5 14 7 22l-32 3c-4-21-16-35-41-35" id="aH"/><g id="s"><use transform="matrix(0.06172839506172839,0,0,0.06172839506172839,0,0)" xlink:href="#aG"/><use transform="matrix(0.06172839506172839,0,0,0.06172839506172839,13.518518518518517,0)" xlink:href="#av"/><use transform="matrix(0.06172839506172839,0,0,0.06172839506172839,25.864197530864196,0)" xlink:href="#aC"/><use transform="matrix(0.06172839506172839,0,0,0.06172839506172839,38.20987654320987,0)" xlink:href="#aH"/><use transform="matrix(0.06172839506172839,0,0,0.06172839506172839,49.32098765432099,0)" xlink:href="#X"/><use transform="matrix(0.06172839506172839,0,0,0.06172839506172839,55.49382716049383,0)" xlink:href="#aD"/><use transform="matrix(0.06172839506172839,0,0,0.06172839506172839,60.370370370370374,0)" xlink:href="#V"/><use transform="matrix(0.06172839506172839,0,0,0.06172839506172839,72.71604938271605,0)" xlink:href="#aC"/><use transform="matrix(0.06172839506172839,0,0,0.06172839506172839,85.06172839506173,0)" xlink:href="#ab"/></g><path fill="#3a414a" d="M179-190L93 31C79 59 56 82 12 73V49c39 6 53-20 64-50L1-190h34L92-34l54-156h33" id="aI"/><g id="t"><use transform="matrix(0.06172839506172839,0,0,0.06172839506172839,0,0)" xlink:href="#aE"/><use transform="matrix(0.06172839506172839,0,0,0.06172839506172839,12.345679012345679,0)" xlink:href="#aa"/><use transform="matrix(0.06172839506172839,0,0,0.06172839506172839,24.691358024691358,0)" xlink:href="#aI"/><use transform="matrix(0.06172839506172839,0,0,0.06172839506172839,35.80246913580247,0)" xlink:href="#Y"/><use transform="matrix(0.06172839506172839,0,0,0.06172839506172839,48.148148148148145,0)" xlink:href="#W"/></g><path fill="#e81313" d="M76-208v77h127v40H76V0H24v-248h183v40H76" id="aJ"/><path fill="#e81313" d="M185-48c-13 30-37 53-82 52C43 2 14-33 14-96s30-98 90-98c62 0 83 45 84 108H66c0 31 8 55 39 56 18 0 30-7 34-22zm-45-69c5-46-57-63-70-21-2 6-4 13-4 21h74" id="aK"/><path fill="#e81313" d="M115-3C79 11 28 4 28-45v-112H4v-33h27l15-45h31v45h36v33H77v99c-1 23 16 31 38 25v30" id="aL"/><path fill="#e81313" d="M190-63c-7 42-38 67-86 67-59 0-84-38-90-98-12-110 154-137 174-36l-49 2c-2-19-15-32-35-32-30 0-35 28-38 64-6 74 65 87 74 30" id="aM"/><path fill="#e81313" d="M114-157C55-157 80-60 75 0H25v-261h50l-1 109c12-26 28-41 61-42 86-1 58 113 63 194h-50c-7-57 23-157-34-157" id="aN"/><g id="v"><use transform="matrix(0.03703703703703702,0,0,0.03703703703703702,0,0)" xlink:href="#aJ"/><use transform="matrix(0.03703703703703702,0,0,0.03703703703703702,8.111111111111107,0)" xlink:href="#aK"/><use transform="matrix(0.03703703703703702,0,0,0.03703703703703702,15.518518518518512,0)" xlink:href="#aL"/><use transform="matrix(0.03703703703703702,0,0,0.03703703703703702,19.925925925925917,0)" xlink:href="#aM"/><use transform="matrix(0.03703703703703702,0,0,0.03703703703703702,27.33333333333332,0)" xlink:href="#aN"/></g><path fill="#e81313" d="M67-125c0 53 21 87 73 88 37 1 54-22 65-47l45 17C233-25 199 4 140 4 58 4 20-42 15-125 8-235 124-281 211-232c18 10 29 29 36 50l-46 12c-8-25-30-41-62-41-52 0-71 34-72 86" id="aO"/><path fill="#e81313" d="M25 0v-261h50V0H25" id="aP"/><path fill="#e81313" d="M110-194c64 0 96 36 96 99 0 64-35 99-97 99-61 0-95-36-95-99 0-62 34-99 96-99zm-1 164c35 0 45-28 45-65 0-40-10-65-43-65-34 0-45 26-45 65 0 36 10 65 43 65" id="aQ"/><path fill="#e81313" d="M85 4C-2 5 27-109 22-190h50c7 57-23 150 33 157 60-5 35-97 40-157h50l1 190h-47c-2-12 1-28-3-38-12 25-28 42-61 42" id="aR"/><path fill="#e81313" d="M88-194c31-1 46 15 58 34l-1-101h50l1 261h-48c-2-10 0-23-3-31C134-8 116 4 84 4 32 4 16-41 15-95c0-56 19-97 73-99zm17 164c33 0 40-30 41-66 1-37-9-64-41-64s-38 30-39 65c0 43 13 65 39 65" id="aS"/><path fill="#e81313" d="M275 0h-61l-44-196L126 0H64L0-248h53L97-49l45-199h58l43 199 44-199h52" id="aT"/><path fill="#e81313" d="M133-34C117-15 103 5 69 4 32 3 11-16 11-54c-1-60 55-63 116-61 1-26-3-47-28-47-18 1-26 9-28 27l-52-2c7-38 36-58 82-57s74 22 75 68l1 82c-1 14 12 18 25 15v27c-30 8-71 5-69-32zm-48 3c29 0 43-24 42-57-32 0-66-3-65 30 0 17 8 27 23 27" id="aU"/><g id="w"><use transform="matrix(0.03703703703703702,0,0,0.03703703703703702,0,0)" xlink:href="#aO"/><use transform="matrix(0.03703703703703702,0,0,0.03703703703703702,9.592592592592588,0)" xlink:href="#aP"/><use transform="matrix(0.03703703703703702,0,0,0.03703703703703702,13.29629629629629,0)" xlink:href="#aQ"/><use transform="matrix(0.03703703703703702,0,0,0.03703703703703702,21.407407407407398,0)" xlink:href="#aR"/><use transform="matrix(0.03703703703703702,0,0,0.03703703703703702,29.518518518518505,0)" xlink:href="#aS"/><use transform="matrix(0.03703703703703702,0,0,0.03703703703703702,37.62962962962961,0)" xlink:href="#aT"/><use transform="matrix(0.03703703703703702,0,0,0.03703703703703702,49.70370370370368,0)" xlink:href="#aU"/><use transform="matrix(0.03703703703703702,0,0,0.03703703703703702,57.111111111111086,0)" xlink:href="#aL"/><use transform="matrix(0.03703703703703702,0,0,0.03703703703703702,61.51851851851849,0)" xlink:href="#aM"/><use transform="matrix(0.03703703703703702,0,0,0.03703703703703702,68.9259259259259,0)" xlink:href="#aN"/></g><path fill="#e81313" d="M230 0l2-204L168 0h-37L68-204 70 0H24v-248h70l56 185 57-185h69V0h-46" id="aV"/><path fill="#e81313" d="M135-150c-39-12-60 13-60 57V0H25l-1-190h47c2 13-1 29 3 40 6-28 27-53 61-41v41" id="aW"/><path fill="#e81313" d="M25-224v-37h50v37H25zM25 0v-190h50V0H25" id="aX"/><path fill="#e81313" d="M137-138c1-29-70-34-71-4 15 46 118 7 119 86 1 83-164 76-172 9l43-7c4 19 20 25 44 25 33 8 57-30 24-41C81-84 22-81 20-136c-2-80 154-74 161-7" id="aY"/><g id="x"><use transform="matrix(0.03703703703703702,0,0,0.03703703703703702,0,0)" xlink:href="#aV"/><use transform="matrix(0.03703703703703702,0,0,0.03703703703703702,11.074074074074069,0)" xlink:href="#aK"/><use transform="matrix(0.03703703703703702,0,0,0.03703703703703702,18.481481481481474,0)" xlink:href="#aL"/><use transform="matrix(0.03703703703703702,0,0,0.03703703703703702,22.88888888888888,0)" xlink:href="#aW"/><use transform="matrix(0.03703703703703702,0,0,0.03703703703703702,28.074074074074062,0)" xlink:href="#aX"/><use transform="matrix(0.03703703703703702,0,0,0.03703703703703702,31.777777777777764,0)" xlink:href="#aM"/><use transform="matrix(0.03703703703703702,0,0,0.03703703703703702,39.18518518518517,0)" xlink:href="#aY"/></g><path fill="#e81313" d="M67-93c0 74 22 123 53 168H70C40 30 18-18 18-93s22-123 52-168h50c-32 44-53 94-53 168" id="aZ"/><path fill="#e81313" d="M140-251c80 0 125 45 125 126S219 4 139 4C58 4 15-44 15-125s44-126 125-126zm-1 214c52 0 73-35 73-88 0-50-21-86-72-86-52 0-73 35-73 86s22 88 72 88" id="ba"/><path fill="#e81313" d="M135-194c53 0 70 44 70 98 0 56-19 98-73 100-31 1-45-17-59-34 3 33 2 69 2 105H25l-1-265h48c2 10 0 23 3 31 11-24 29-35 60-35zM114-30c33 0 39-31 40-66 0-38-9-64-40-64-56 0-55 130 0 130" id="bb"/><path fill="#e81313" d="M135-194c87-1 58 113 63 194h-50c-7-57 23-157-34-157-59 0-34 97-39 157H25l-1-190h47c2 12-1 28 3 38 12-26 28-41 61-42" id="bc"/><path fill="#e81313" d="M102-93c0 74-22 123-52 168H0C30 29 54-18 53-93c0-74-22-123-53-168h50c30 45 52 94 52 168" id="bd"/><g id="y"><use transform="matrix(0.03703703703703702,0,0,0.03703703703703702,0,0)" xlink:href="#aZ"/><use transform="matrix(0.03703703703703702,0,0,0.03703703703703702,4.407407407407406,0)" xlink:href="#ba"/><use transform="matrix(0.03703703703703702,0,0,0.03703703703703702,14.777777777777771,0)" xlink:href="#bb"/><use transform="matrix(0.03703703703703702,0,0,0.03703703703703702,22.88888888888888,0)" xlink:href="#aL"/><use transform="matrix(0.03703703703703702,0,0,0.03703703703703702,27.296296296296283,0)" xlink:href="#aX"/><use transform="matrix(0.03703703703703702,0,0,0.03703703703703702,30.999999999999986,0)" xlink:href="#aQ"/><use transform="matrix(0.03703703703703702,0,0,0.03703703703703702,39.11111111111109,0)" xlink:href="#bc"/><use transform="matrix(0.03703703703703702,0,0,0.03703703703703702,47.2222222222222,0)" xlink:href="#aU"/><use transform="matrix(0.03703703703703702,0,0,0.03703703703703702,54.629629629629605,0)" xlink:href="#aP"/><use transform="matrix(0.03703703703703702,0,0,0.03703703703703702,58.33333333333331,0)" xlink:href="#bd"/></g><path fill="#1071e5" d="M24 0v-248h52V0H24" id="be"/><path fill="#1071e5" d="M135-194c87-1 58 113 63 194h-50c-7-57 23-157-34-157-59 0-34 97-39 157H25l-1-190h47c2 12-1 28 3 38 12-26 28-41 61-42" id="bf"/><path fill="#1071e5" d="M195-6C206 82 75 100 31 46c-4-6-6-13-8-21l49-6c3 16 16 24 34 25 40 0 42-37 40-79-11 22-30 35-61 35-53 0-70-43-70-97 0-56 18-96 73-97 30 0 46 14 59 34l2-30h47zm-90-29c32 0 41-27 41-63 0-35-9-62-40-62-32 0-39 29-40 63 0 36 9 62 39 62" id="bg"/><path fill="#1071e5" d="M185-48c-13 30-37 53-82 52C43 2 14-33 14-96s30-98 90-98c62 0 83 45 84 108H66c0 31 8 55 39 56 18 0 30-7 34-22zm-45-69c5-46-57-63-70-21-2 6-4 13-4 21h74" id="bh"/><path fill="#1071e5" d="M137-138c1-29-70-34-71-4 15 46 118 7 119 86 1 83-164 76-172 9l43-7c4 19 20 25 44 25 33 8 57-30 24-41C81-84 22-81 20-136c-2-80 154-74 161-7" id="bi"/><path fill="#1071e5" d="M115-3C79 11 28 4 28-45v-112H4v-33h27l15-45h31v45h36v33H77v99c-1 23 16 31 38 25v30" id="bj"/><g id="z"><use transform="matrix(0.03703703703703702,0,0,0.03703703703703702,0,0)" xlink:href="#be"/><use transform="matrix(0.03703703703703702,0,0,0.03703703703703702,3.703703703703702,0)" xlink:href="#bf"/><use transform="matrix(0.03703703703703702,0,0,0.03703703703703702,11.81481481481481,0)" xlink:href="#bg"/><use transform="matrix(0.03703703703703702,0,0,0.03703703703703702,19.925925925925917,0)" xlink:href="#bh"/><use transform="matrix(0.03703703703703702,0,0,0.03703703703703702,27.33333333333332,0)" xlink:href="#bi"/><use transform="matrix(0.03703703703703702,0,0,0.03703703703703702,34.740740740740726,0)" xlink:href="#bj"/></g><path fill="#1071e5" d="M24-248c93 1 206-16 204 79-1 75-69 88-152 82V0H24v-248zm52 121c47 0 100 7 100-41 0-47-54-39-100-39v80" id="bk"/><path fill="#1071e5" d="M135-150c-39-12-60 13-60 57V0H25l-1-190h47c2 13-1 29 3 40 6-28 27-53 61-41v41" id="bl"/><path fill="#1071e5" d="M110-194c64 0 96 36 96 99 0 64-35 99-97 99-61 0-95-36-95-99 0-62 34-99 96-99zm-1 164c35 0 45-28 45-65 0-40-10-65-43-65-34 0-45 26-45 65 0 36 10 65 43 65" id="bm"/><path fill="#1071e5" d="M220-157c-53 9-28 100-34 157h-49v-107c1-27-5-49-29-50C55-147 81-57 75 0H25l-1-190h47c2 12-1 28 3 38 10-53 101-56 108 0 13-22 24-43 59-42 82 1 51 116 57 194h-49v-107c-1-25-5-48-29-50" id="bn"/><path fill="#1071e5" d="M114-157C55-157 80-60 75 0H25v-261h50l-1 109c12-26 28-41 61-42 86-1 58 113 63 194h-50c-7-57 23-157-34-157" id="bo"/><path fill="#1071e5" d="M85 4C-2 5 27-109 22-190h50c7 57-23 150 33 157 60-5 35-97 40-157h50l1 190h-47c-2-12 1-28-3-38-12 25-28 42-61 42" id="bp"/><g id="A"><use transform="matrix(0.03703703703703702,0,0,0.03703703703703702,0,0)" xlink:href="#bk"/><use transform="matrix(0.03703703703703702,0,0,0.03703703703703702,8.888888888888886,0)" xlink:href="#bl"/><use transform="matrix(0.03703703703703702,0,0,0.03703703703703702,14.07407407407407,0)" xlink:href="#bm"/><use transform="matrix(0.03703703703703702,0,0,0.03703703703703702,22.185185185185176,0)" xlink:href="#bn"/><use transform="matrix(0.03703703703703702,0,0,0.03703703703703702,34.037037037037024,0)" xlink:href="#bh"/><use transform="matrix(0.03703703703703702,0,0,0.03703703703703702,41.44444444444443,0)" xlink:href="#bj"/><use transform="matrix(0.03703703703703702,0,0,0.03703703703703702,45.85185185185183,0)" xlink:href="#bo"/><use transform="matrix(0.03703703703703702,0,0,0.03703703703703702,53.96296296296294,0)" xlink:href="#bh"/><use transform="matrix(0.03703703703703702,0,0,0.03703703703703702,61.370370370370345,0)" xlink:href="#bp"/><use transform="matrix(0.03703703703703702,0,0,0.03703703703703702,69.48148148148145,0)" xlink:href="#bi"/></g><path fill="#1071e5" d="M230 0l2-204L168 0h-37L68-204 70 0H24v-248h70l56 185 57-185h69V0h-46" id="bq"/><path fill="#1071e5" d="M25-224v-37h50v37H25zM25 0v-190h50V0H25" id="br"/><path fill="#1071e5" d="M190-63c-7 42-38 67-86 67-59 0-84-38-90-98-12-110 154-137 174-36l-49 2c-2-19-15-32-35-32-30 0-35 28-38 64-6 74 65 87 74 30" id="bs"/><g id="B"><use transform="matrix(0.03703703703703702,0,0,0.03703703703703702,0,0)" xlink:href="#bq"/><use transform="matrix(0.03703703703703702,0,0,0.03703703703703702,11.074074074074069,0)" xlink:href="#bh"/><use transform="matrix(0.03703703703703702,0,0,0.03703703703703702,18.481481481481474,0)" xlink:href="#bj"/><use transform="matrix(0.03703703703703702,0,0,0.03703703703703702,22.88888888888888,0)" xlink:href="#bl"/><use transform="matrix(0.03703703703703702,0,0,0.03703703703703702,28.074074074074062,0)" xlink:href="#br"/><use transform="matrix(0.03703703703703702,0,0,0.03703703703703702,31.777777777777764,0)" xlink:href="#bs"/><use transform="matrix(0.03703703703703702,0,0,0.03703703703703702,39.18518518518517,0)" xlink:href="#bi"/></g><path fill="#fc9432" d="M76-208v77h127v40H76V0H24v-248h183v40H76" id="bt"/><path fill="#fc9432" d="M185-48c-13 30-37 53-82 52C43 2 14-33 14-96s30-98 90-98c62 0 83 45 84 108H66c0 31 8 55 39 56 18 0 30-7 34-22zm-45-69c5-46-57-63-70-21-2 6-4 13-4 21h74" id="bu"/><path fill="#fc9432" d="M115-3C79 11 28 4 28-45v-112H4v-33h27l15-45h31v45h36v33H77v99c-1 23 16 31 38 25v30" id="bv"/><path fill="#fc9432" d="M190-63c-7 42-38 67-86 67-59 0-84-38-90-98-12-110 154-137 174-36l-49 2c-2-19-15-32-35-32-30 0-35 28-38 64-6 74 65 87 74 30" id="bw"/><path fill="#fc9432" d="M114-157C55-157 80-60 75 0H25v-261h50l-1 109c12-26 28-41 61-42 86-1 58 113 63 194h-50c-7-57 23-157-34-157" id="bx"/><g id="C"><use transform="matrix(0.03703703703703702,0,0,0.03703703703703702,0,0)" xlink:href="#bt"/><use transform="matrix(0.03703703703703702,0,0,0.03703703703703702,8.111111111111107,0)" xlink:href="#bu"/><use transform="matrix(0.03703703703703702,0,0,0.03703703703703702,15.518518518518512,0)" xlink:href="#bv"/><use transform="matrix(0.03703703703703702,0,0,0.03703703703703702,19.925925925925917,0)" xlink:href="#bw"/><use transform="matrix(0.03703703703703702,0,0,0.03703703703703702,27.33333333333332,0)" xlink:href="#bx"/></g><path fill="#fc9432" d="M67-125c0 53 21 87 73 88 37 1 54-22 65-47l45 17C233-25 199 4 140 4 58 4 20-42 15-125 8-235 124-281 211-232c18 10 29 29 36 50l-46 12c-8-25-30-41-62-41-52 0-71 34-72 86" id="by"/><path fill="#fc9432" d="M25 0v-261h50V0H25" id="bz"/><path fill="#fc9432" d="M110-194c64 0 96 36 96 99 0 64-35 99-97 99-61 0-95-36-95-99 0-62 34-99 96-99zm-1 164c35 0 45-28 45-65 0-40-10-65-43-65-34 0-45 26-45 65 0 36 10 65 43 65" id="bA"/><path fill="#fc9432" d="M85 4C-2 5 27-109 22-190h50c7 57-23 150 33 157 60-5 35-97 40-157h50l1 190h-47c-2-12 1-28-3-38-12 25-28 42-61 42" id="bB"/><path fill="#fc9432" d="M88-194c31-1 46 15 58 34l-1-101h50l1 261h-48c-2-10 0-23-3-31C134-8 116 4 84 4 32 4 16-41 15-95c0-56 19-97 73-99zm17 164c33 0 40-30 41-66 1-37-9-64-41-64s-38 30-39 65c0 43 13 65 39 65" id="bC"/><path fill="#fc9432" d="M275 0h-61l-44-196L126 0H64L0-248h53L97-49l45-199h58l43 199 44-199h52" id="bD"/><path fill="#fc9432" d="M133-34C117-15 103 5 69 4 32 3 11-16 11-54c-1-60 55-63 116-61 1-26-3-47-28-47-18 1-26 9-28 27l-52-2c7-38 36-58 82-57s74 22 75 68l1 82c-1 14 12 18 25 15v27c-30 8-71 5-69-32zm-48 3c29 0 43-24 42-57-32 0-66-3-65 30 0 17 8 27 23 27" id="bE"/><g id="D"><use transform="matrix(0.03703703703703702,0,0,0.03703703703703702,0,0)" xlink:href="#by"/><use transform="matrix(0.03703703703703702,0,0,0.03703703703703702,9.592592592592588,0)" xlink:href="#bz"/><use transform="matrix(0.03703703703703702,0,0,0.03703703703703702,13.29629629629629,0)" xlink:href="#bA"/><use transform="matrix(0.03703703703703702,0,0,0.03703703703703702,21.407407407407398,0)" xlink:href="#bB"/><use transform="matrix(0.03703703703703702,0,0,0.03703703703703702,29.518518518518505,0)" xlink:href="#bC"/><use transform="matrix(0.03703703703703702,0,0,0.03703703703703702,37.62962962962961,0)" xlink:href="#bD"/><use transform="matrix(0.03703703703703702,0,0,0.03703703703703702,49.70370370370368,0)" xlink:href="#bE"/><use transform="matrix(0.03703703703703702,0,0,0.03703703703703702,57.111111111111086,0)" xlink:href="#bv"/><use transform="matrix(0.03703703703703702,0,0,0.03703703703703702,61.51851851851849,0)" xlink:href="#bw"/><use transform="matrix(0.03703703703703702,0,0,0.03703703703703702,68.9259259259259,0)" xlink:href="#bx"/></g><path fill="#fc9432" d="M230 0l2-204L168 0h-37L68-204 70 0H24v-248h70l56 185 57-185h69V0h-46" id="bF"/><path fill="#fc9432" d="M135-150c-39-12-60 13-60 57V0H25l-1-190h47c2 13-1 29 3 40 6-28 27-53 61-41v41" id="bG"/><path fill="#fc9432" d="M25-224v-37h50v37H25zM25 0v-190h50V0H25" id="bH"/><path fill="#fc9432" d="M137-138c1-29-70-34-71-4 15 46 118 7 119 86 1 83-164 76-172 9l43-7c4 19 20 25 44 25 33 8 57-30 24-41C81-84 22-81 20-136c-2-80 154-74 161-7" id="bI"/><g id="E"><use transform="matrix(0.03703703703703702,0,0,0.03703703703703702,0,0)" xlink:href="#bF"/><use transform="matrix(0.03703703703703702,0,0,0.03703703703703702,11.074074074074069,0)" xlink:href="#bu"/><use transform="matrix(0.03703703703703702,0,0,0.03703703703703702,18.481481481481474,0)" xlink:href="#bv"/><use transform="matrix(0.03703703703703702,0,0,0.03703703703703702,22.88888888888888,0)" xlink:href="#bG"/><use transform="matrix(0.03703703703703702,0,0,0.03703703703703702,28.074074074074062,0)" xlink:href="#bH"/><use transform="matrix(0.03703703703703702,0,0,0.03703703703703702,31.777777777777764,0)" xlink:href="#bw"/><use transform="matrix(0.03703703703703702,0,0,0.03703703703703702,39.18518518518517,0)" xlink:href="#bI"/></g><g id="F"><use transform="matrix(0.03703703703703702,0,0,0.03703703703703702,0,0)" xlink:href="#bt"/><use transform="matrix(0.03703703703703702,0,0,0.03703703703703702,8.111111111111107,0)" xlink:href="#bA"/><use transform="matrix(0.03703703703703702,0,0,0.03703703703703702,16.222222222222214,0)" xlink:href="#bG"/></g><path fill="#fc9432" d="M24-248c120-7 223 5 221 122C244-46 201 0 124 0H24v-248zM76-40c74 7 117-18 117-86 0-67-45-88-117-82v168" id="bJ"/><path fill="#fc9432" d="M135-194c52 0 70 43 70 98 0 56-19 99-73 100-30 1-46-15-58-35L72 0H24l1-261h50v104c11-23 29-37 60-37zM114-30c31 0 40-27 40-66 0-37-7-63-39-63s-41 28-41 65c0 36 8 64 40 64" id="bK"/><g id="G"><use transform="matrix(0.03703703703703702,0,0,0.03703703703703702,0,0)" xlink:href="#bJ"/><use transform="matrix(0.03703703703703702,0,0,0.03703703703703702,9.592592592592588,0)" xlink:href="#bE"/><use transform="matrix(0.03703703703703702,0,0,0.03703703703703702,16.999999999999993,0)" xlink:href="#bI"/><use transform="matrix(0.03703703703703702,0,0,0.03703703703703702,24.407407407407398,0)" xlink:href="#bx"/><use transform="matrix(0.03703703703703702,0,0,0.03703703703703702,32.518518518518505,0)" xlink:href="#bK"/><use transform="matrix(0.03703703703703702,0,0,0.03703703703703702,40.62962962962961,0)" xlink:href="#bA"/><use transform="matrix(0.03703703703703702,0,0,0.03703703703703702,48.74074074074072,0)" xlink:href="#bE"/><use transform="matrix(0.03703703703703702,0,0,0.03703703703703702,56.148148148148124,0)" xlink:href="#bG"/><use transform="matrix(0.03703703703703702,0,0,0.03703703703703702,61.33333333333331,0)" xlink:href="#bC"/><use transform="matrix(0.03703703703703702,0,0,0.03703703703703702,69.44444444444441,0)" xlink:href="#bI"/></g><path fill="#282c33" d="M240-174c0 40-23 61-54 70L253 0h-59l-57-94H76V0H24v-248c93 4 217-23 216 74zM76-134c48-2 112 12 112-38 0-48-66-32-112-35v73" id="bL"/><path fill="#282c33" d="M185-48c-13 30-37 53-82 52C43 2 14-33 14-96s30-98 90-98c62 0 83 45 84 108H66c0 31 8 55 39 56 18 0 30-7 34-22zm-45-69c5-46-57-63-70-21-2 6-4 13-4 21h74" id="bM"/><path fill="#282c33" d="M133-34C117-15 103 5 69 4 32 3 11-16 11-54c-1-60 55-63 116-61 1-26-3-47-28-47-18 1-26 9-28 27l-52-2c7-38 36-58 82-57s74 22 75 68l1 82c-1 14 12 18 25 15v27c-30 8-71 5-69-32zm-48 3c29 0 43-24 42-57-32 0-66-3-65 30 0 17 8 27 23 27" id="bN"/><path fill="#282c33" d="M88-194c31-1 46 15 58 34l-1-101h50l1 261h-48c-2-10 0-23-3-31C134-8 116 4 84 4 32 4 16-41 15-95c0-56 19-97 73-99zm17 164c33 0 40-30 41-66 1-37-9-64-41-64s-38 30-39 65c0 43 13 65 39 65" id="bO"/><g id="H"><use transform="matrix(0.03703703703703702,0,0,0.03703703703703702,0,0)" xlink:href="#bL"/><use transform="matrix(0.03703703703703702,0,0,0.03703703703703702,9.592592592592588,0)" xlink:href="#bM"/><use transform="matrix(0.03703703703703702,0,0,0.03703703703703702,16.999999999999993,0)" xlink:href="#bN"/><use transform="matrix(0.03703703703703702,0,0,0.03703703703703702,24.407407407407398,0)" xlink:href="#bO"/></g><path fill="#282c33" d="M67-125c0 53 21 87 73 88 37 1 54-22 65-47l45 17C233-25 199 4 140 4 58 4 20-42 15-125 8-235 124-281 211-232c18 10 29 29 36 50l-46 12c-8-25-30-41-62-41-52 0-71 34-72 86" id="bP"/><path fill="#282c33" d="M110-194c64 0 96 36 96 99 0 64-35 99-97 99-61 0-95-36-95-99 0-62 34-99 96-99zm-1 164c35 0 45-28 45-65 0-40-10-65-43-65-34 0-45 26-45 65 0 36 10 65 43 65" id="bQ"/><path fill="#282c33" d="M135-194c87-1 58 113 63 194h-50c-7-57 23-157-34-157-59 0-34 97-39 157H25l-1-190h47c2 12-1 28 3 38 12-26 28-41 61-42" id="bR"/><path fill="#282c33" d="M121-226c-27-7-43 5-38 36h38v33H83V0H34v-157H6v-33h28c-9-59 32-81 87-68v32" id="bS"/><path fill="#282c33" d="M25-224v-37h50v37H25zM25 0v-190h50V0H25" id="bT"/><path fill="#282c33" d="M195-6C206 82 75 100 31 46c-4-6-6-13-8-21l49-6c3 16 16 24 34 25 40 0 42-37 40-79-11 22-30 35-61 35-53 0-70-43-70-97 0-56 18-96 73-97 30 0 46 14 59 34l2-30h47zm-90-29c32 0 41-27 41-63 0-35-9-62-40-62-32 0-39 29-40 63 0 36 9 62 39 62" id="bU"/><path fill="#282c33" d="M85 4C-2 5 27-109 22-190h50c7 57-23 150 33 157 60-5 35-97 40-157h50l1 190h-47c-2-12 1-28-3-38-12 25-28 42-61 42" id="bV"/><path fill="#282c33" d="M135-150c-39-12-60 13-60 57V0H25l-1-190h47c2 13-1 29 3 40 6-28 27-53 61-41v41" id="bW"/><path fill="#282c33" d="M115-3C79 11 28 4 28-45v-112H4v-33h27l15-45h31v45h36v33H77v99c-1 23 16 31 38 25v30" id="bX"/><g id="I"><use transform="matrix(0.03703703703703702,0,0,0.03703703703703702,0,0)" xlink:href="#bP"/><use transform="matrix(0.03703703703703702,0,0,0.03703703703703702,9.592592592592588,0)" xlink:href="#bQ"/><use transform="matrix(0.03703703703703702,0,0,0.03703703703703702,17.703703703703695,0)" xlink:href="#bR"/><use transform="matrix(0.03703703703703702,0,0,0.03703703703703702,25.814814814814802,0)" xlink:href="#bS"/><use transform="matrix(0.03703703703703702,0,0,0.03703703703703702,30.22222222222221,0)" xlink:href="#bT"/><use transform="matrix(0.03703703703703702,0,0,0.03703703703703702,33.92592592592591,0)" xlink:href="#bU"/><use transform="matrix(0.03703703703703702,0,0,0.03703703703703702,42.03703703703702,0)" xlink:href="#bV"/><use transform="matrix(0.03703703703703702,0,0,0.03703703703703702,50.148148148148124,0)" xlink:href="#bW"/><use transform="matrix(0.03703703703703702,0,0,0.03703703703703702,55.33333333333331,0)" xlink:href="#bN"/><use transform="matrix(0.03703703703703702,0,0,0.03703703703703702,62.74074074074071,0)" xlink:href="#bX"/><use transform="matrix(0.03703703703703702,0,0,0.03703703703703702,67.14814814814812,0)" xlink:href="#bT"/><use transform="matrix(0.03703703703703702,0,0,0.03703703703703702,70.85185185185182,0)" xlink:href="#bQ"/><use transform="matrix(0.03703703703703702,0,0,0.03703703703703702,78.96296296296293,0)" xlink:href="#bR"/></g><path fill="#e81313" d="M169-182c-1-43-94-46-97-3 18 66 151 10 154 114 3 95-165 93-204 36-6-8-10-19-12-30l50-8c3 46 112 56 116 5-17-69-150-10-154-114-4-87 153-88 188-35 5 8 8 18 10 28" id="bY"/><g id="J"><use transform="matrix(0.03703703703703702,0,0,0.03703703703703702,0,0)" xlink:href="#bY"/><use transform="matrix(0.03703703703703702,0,0,0.03703703703703702,8.888888888888886,0)" xlink:href="#aM"/><use transform="matrix(0.03703703703703702,0,0,0.03703703703703702,16.29629629629629,0)" xlink:href="#aW"/><use transform="matrix(0.03703703703703702,0,0,0.03703703703703702,21.481481481481474,0)" xlink:href="#aU"/><use transform="matrix(0.03703703703703702,0,0,0.03703703703703702,28.888888888888882,0)" xlink:href="#bb"/><use transform="matrix(0.03703703703703702,0,0,0.03703703703703702,36.999999999999986,0)" xlink:href="#aK"/></g><path fill="#e81313" d="M24-248c93 1 206-16 204 79-1 75-69 88-152 82V0H24v-248zm52 121c47 0 100 7 100-41 0-47-54-39-100-39v80" id="bZ"/><path fill="#e81313" d="M220-157c-53 9-28 100-34 157h-49v-107c1-27-5-49-29-50C55-147 81-57 75 0H25l-1-190h47c2 12-1 28 3 38 10-53 101-56 108 0 13-22 24-43 59-42 82 1 51 116 57 194h-49v-107c-1-25-5-48-29-50" id="ca"/><g id="K"><use transform="matrix(0.03703703703703702,0,0,0.03703703703703702,0,0)" xlink:href="#bZ"/><use transform="matrix(0.03703703703703702,0,0,0.03703703703703702,8.888888888888886,0)" xlink:href="#aW"/><use transform="matrix(0.03703703703703702,0,0,0.03703703703703702,14.07407407407407,0)" xlink:href="#aQ"/><use transform="matrix(0.03703703703703702,0,0,0.03703703703703702,22.185185185185176,0)" xlink:href="#ca"/><use transform="matrix(0.03703703703703702,0,0,0.03703703703703702,34.037037037037024,0)" xlink:href="#aK"/><use transform="matrix(0.03703703703703702,0,0,0.03703703703703702,41.44444444444443,0)" xlink:href="#aL"/><use transform="matrix(0.03703703703703702,0,0,0.03703703703703702,45.85185185185183,0)" xlink:href="#aN"/><use transform="matrix(0.03703703703703702,0,0,0.03703703703703702,53.96296296296294,0)" xlink:href="#aK"/><use transform="matrix(0.03703703703703702,0,0,0.03703703703703702,61.370370370370345,0)" xlink:href="#aR"/><use transform="matrix(0.03703703703703702,0,0,0.03703703703703702,69.48148148148145,0)" xlink:href="#aY"/></g><g id="L"><use transform="matrix(0.03703703703703702,0,0,0.03703703703703702,0,0)" xlink:href="#aV"/><use transform="matrix(0.03703703703703702,0,0,0.03703703703703702,11.074074074074069,0)" xlink:href="#aK"/><use transform="matrix(0.03703703703703702,0,0,0.03703703703703702,18.481481481481474,0)" xlink:href="#aL"/><use transform="matrix(0.03703703703703702,0,0,0.03703703703703702,22.88888888888888,0)" xlink:href="#aW"/><use transform="matrix(0.03703703703703702,0,0,0.03703703703703702,28.074074074074062,0)" xlink:href="#aX"/><use transform="matrix(0.03703703703703702,0,0,0.03703703703703702,31.777777777777764,0)" xlink:href="#aM"/><use transform="matrix(0.03703703703703702,0,0,0.03703703703703702,39.18518518518517,0)" xlink:href="#aY"/></g><g id="M"><use transform="matrix(0.04320987654320986,0,0,0.04320987654320986,0,0)" xlink:href="#R"/><use transform="matrix(0.04320987654320986,0,0,0.04320987654320986,10.370370370370367,0)" xlink:href="#aD"/><use transform="matrix(0.04320987654320986,0,0,0.04320987654320986,13.783950617283946,0)" xlink:href="#aA"/><use transform="matrix(0.04320987654320986,0,0,0.04320987654320986,22.425925925925917,0)" xlink:href="#Y"/><use transform="matrix(0.04320987654320986,0,0,0.04320987654320986,31.067901234567888,0)" xlink:href="#aH"/><use transform="matrix(0.04320987654320986,0,0,0.04320987654320986,38.84567901234567,0)" xlink:href="#aa"/><use transform="matrix(0.04320987654320986,0,0,0.04320987654320986,47.487654320987644,0)" xlink:href="#W"/></g><g id="N"><use transform="matrix(0.04320987654320986,0,0,0.04320987654320986,0,0)" xlink:href="#Z"/><use transform="matrix(0.04320987654320986,0,0,0.04320987654320986,7.734567901234566,0)" xlink:href="#aa"/><use transform="matrix(0.04320987654320986,0,0,0.04320987654320986,16.376543209876537,0)" xlink:href="#ab"/><use transform="matrix(0.04320987654320986,0,0,0.04320987654320986,24.154320987654312,0)" xlink:href="#ac"/></g><g id="O"><use transform="matrix(0.04320987654320986,0,0,0.04320987654320986,0,0)" xlink:href="#ay"/><use transform="matrix(0.04320987654320986,0,0,0.04320987654320986,11.191358024691354,0)" xlink:href="#V"/><use transform="matrix(0.04320987654320986,0,0,0.04320987654320986,19.83333333333333,0)" xlink:href="#aC"/><use transform="matrix(0.04320987654320986,0,0,0.04320987654320986,28.475308641975303,0)" xlink:href="#X"/><use transform="matrix(0.04320987654320986,0,0,0.04320987654320986,32.79629629629629,0)" xlink:href="#aa"/><use transform="matrix(0.04320987654320986,0,0,0.04320987654320986,41.438271604938265,0)" xlink:href="#aD"/><use transform="matrix(0.04320987654320986,0,0,0.04320987654320986,44.85185185185185,0)" xlink:href="#aC"/><use transform="matrix(0.04320987654320986,0,0,0.04320987654320986,53.49382716049383,0)" xlink:href="#Y"/><use transform="matrix(0.04320987654320986,0,0,0.04320987654320986,62.1358024691358,0)" xlink:href="#W"/></g></defs></g></svg>