<svg xmlns:vectornator="http://vectornator.io" xmlns="http://www.w3.org/2000/svg" viewBox="0 0 501.6 512" fill-rule="evenodd" clip-rule="evenodd" stroke-linecap="round" stroke-linejoin="round"><g vectornator:layerName="Untitled"><path d="M241.9 350c4.4 5.9 13.3 5.9 17.7 0l115.7-152.7c5.5-7.3.3-17.8-8.9-17.8H317c-6.1 0-11.1-5-11.1-11.1V11.1C306 5 301 0 294.9 0h-88.2c-6.1 0-11.1 5-11.1 11.1v157.3c0 6.1-5 11.1-11.1 11.1h-49.4c-9.2 0-14.4 10.5-8.9 17.8L241.9 350zm196.7 40.5v58.6H62.9v-58.6H0V512h501.6V390.5h-63z" fill="#fff"/><path d="M259.6 350l115.7-152.7c5.5-7.3.3-17.8-8.9-17.8H317c-6.1 0-11.1-5-11.1-11.1V11.1C306 5 301 0 294.9 0h-44.1v354.4c3.3 0 6.6-1.4 8.8-4.4zm179 40.5v58.6H250.8V512h250.8V390.5h-63z" opacity=".1" fill="#143f8f"/></g></svg>