<svg width="112" height="15" viewBox="0 0 112 15" fill="none" xmlns="http://www.w3.org/2000/svg"><g clip-path="url(#clip0)"><path d="M39.213 4.71c.811-1.563 2.366-2.344 4.665-2.344 3.215 0 4.822 1.547 4.822 4.642v5.837c.023.288-.035.577-.169.834-.169.206-.39.362-.642.451a10.71 10.71 0 01-4.056.586c-1.908 0-3.223-.297-3.944-.89a3.37 3.37 0 01-1.082-2.761 3.17 3.17 0 011.183-2.817 7.19 7.19 0 013.932-.811c.165 0 .886.038 2.163.113v-.63a2.385 2.385 0 00-.518-1.669 2.271 2.271 0 00-1.735-.563 2.6 2.6 0 00-2.365 1.081c-.097.176-.241.32-.417.417a.953.953 0 01-.552-.079l-.9-.383c-.497-.225-.626-.563-.385-1.014zm6.873 4.98a286.674 286.674 0 00-2.456-.113 2.9 2.9 0 00-1.69.361 1.3 1.3 0 00-.473 1.1 1.408 1.408 0 00.439 1.138 2.715 2.715 0 001.679.372c.755.018 1.51-.042 2.253-.18a.324.324 0 00.248-.315V9.69zm4.575-3.7a3.258 3.258 0 011.183-2.648 5.3 5.3 0 013.459-.98c2.419 0 4.026.804 4.822 2.411a.654.654 0 01-.361 1.014l-1.014.406a.9.9 0 01-.552.1.952.952 0 01-.394-.417 2.538 2.538 0 00-2.437-1.166c-1.412 0-2.118.406-2.118 1.217a.991.991 0 00.586 1 7.312 7.312 0 002.051.394c1.21.053 2.39.389 3.448.98a2.927 2.927 0 011.149 2.648 3.348 3.348 0 01-1.262 2.738 5.587 5.587 0 01-3.603 1.033c-2.644 0-4.319-.909-5.025-2.727a.64.64 0 01.451-.946l1.014-.315a.731.731 0 01.552-.045c.18.104.313.274.372.473.345.826 1.194 1.239 2.546 1.239 1.593 0 2.389-.443 2.389-1.33a1.01 1.01 0 00-.6-1.014 7.626 7.626 0 00-2.107-.428c-.526-.06-.973-.124-1.341-.192a6.998 6.998 0 01-1.206-.349 3.385 3.385 0 01-1.059-.608 2.749 2.749 0 01-.676-.992 3.756 3.756 0 01-.268-1.492l.001-.004zm11.358 0a3.258 3.258 0 011.183-2.648 5.3 5.3 0 013.459-.98c2.419 0 4.026.804 4.822 2.411a.654.654 0 01-.361 1.014l-1.014.406a.9.9 0 01-.552.1.952.952 0 01-.394-.417 2.537 2.537 0 00-2.434-1.172c-1.412 0-2.118.406-2.118 1.217a.991.991 0 00.586 1 7.312 7.312 0 002.051.394c1.21.053 2.39.389 3.448.98a2.927 2.927 0 011.149 2.648 3.348 3.348 0 01-1.262 2.738 5.587 5.587 0 01-3.606 1.039c-2.644 0-4.319-.909-5.025-2.727a.64.64 0 01.451-.946l1.014-.315a.731.731 0 01.552-.045c.18.104.313.274.372.473.345.826 1.194 1.239 2.546 1.239 1.593 0 2.389-.443 2.389-1.33a1.01 1.01 0 00-.6-1.014 7.627 7.627 0 00-2.108-.435c-.526-.06-.973-.124-1.341-.192a6.998 6.998 0 01-1.206-.349 3.385 3.385 0 01-1.059-.608 2.749 2.749 0 01-.676-.992 3.754 3.754 0 01-.267-1.485l.001-.004zm11.4 1.239a4.704 4.704 0 011.342-3.609 5.5 5.5 0 013.887-1.251 5.3 5.3 0 013.887 1.307 4.526 4.526 0 011.318 3.358v1.375c0 .646-.338.969-1.014.969h-6.804v.834a2.098 2.098 0 00.665 1.679c.543.415 1.218.62 1.9.575a2.912 2.912 0 002.667-1.199 1 1 0 01.507-.439.962.962 0 01.642.169l.789.428c.51.24.6.616.27 1.127-.889 1.445-2.512 2.168-4.871 2.168a5.24 5.24 0 01-3.91-1.307 4.821 4.821 0 01-1.273-3.515l-.002-2.669zm7.82-.361a2.189 2.189 0 00-.654-1.7 2.785 2.785 0 00-1.938-.6 2.836 2.836 0 00-1.938.6 2.15 2.15 0 00-.676 1.7v.5h5.206v-.5zm9.713-4.507h.721a.79.79 0 01.541.146.745.745 0 01.158.552v.992a.75.75 0 01-.158.541.75.75 0 01-.541.158h-.806a7.352 7.352 0 00-2.141.27.251.251 0 00-.225.27v8.383a.79.79 0 01-.146.541.707.707 0 01-.53.158h-1.244a.75.75 0 01-.541-.158.75.75 0 01-.158-.541V4.321c-.02-.277.04-.554.169-.8a1.54 1.54 0 01.71-.485 13.27 13.27 0 014.192-.67l-.001-.005zm5.949-2.366a.79.79 0 01.541.146.71.71 0 01.158.53v2.028h2.567a.79.79 0 01.541.146.699.699 0 01.158.53V4.42a.749.749 0 01-.158.541.751.751 0 01-.541.158h-2.566v4.53a2.946 2.946 0 00.53 2.1c.592.4 1.307.577 2.017.5a.833.833 0 01.563.146.752.752 0 01.158.552v1.037a.756.756 0 01-.158.552.91.91 0 01-.563.169c-1.893.06-3.226-.27-4-.992-.774-.721-1.161-2.047-1.161-3.978V5.12h-1.555a.708.708 0 01-.53-.158.79.79 0 01-.146-.541V3.38a.744.744 0 01.146-.53.744.744 0 01.53-.146h1.555V.676a.707.707 0 01.158-.53.79.79 0 01.541-.146l1.215-.005zm5.273 5.994a3.258 3.258 0 011.183-2.648 5.3 5.3 0 013.459-.98c2.419 0 4.026.804 4.822 2.411a.653.653 0 01-.361 1.014l-1.014.406a.9.9 0 01-.552.1.95.95 0 01-.394-.417 2.534 2.534 0 00-2.434-1.172c-1.412 0-2.118.406-2.118 1.217a.99.99 0 00.586 1 7.31 7.31 0 002.051.394 7.765 7.765 0 013.448.98 2.934 2.934 0 011.149 2.648 3.355 3.355 0 01-1.262 2.738 5.588 5.588 0 01-3.604 1.04c-2.644 0-4.319-.909-5.025-2.727a.65.65 0 01.172-.825.643.643 0 01.279-.121l1.014-.315a.73.73 0 01.552-.045c.18.104.313.274.372.473.345.826 1.194 1.239 2.546 1.239 1.593 0 2.389-.443 2.389-1.33a1.005 1.005 0 00-.6-1.014 7.627 7.627 0 00-2.105-.435c-.526-.06-.973-.124-1.341-.192a6.998 6.998 0 01-1.206-.349 3.383 3.383 0 01-1.059-.608 2.751 2.751 0 01-.676-.992 3.755 3.755 0 01-.27-1.485l-.001-.005z" fill="#000"/><path d="M27.605 14.095a5.07 5.07 0 100-10.14 5.07 5.07 0 000 10.14z" fill="#FF8585"/><path d="M14.085 12.97a3.944 3.944 0 100-7.888 3.944 3.944 0 000 7.888z" fill="#F5D159"/><path d="M2.817 11.842a2.817 2.817 0 100-5.634 2.817 2.817 0 000 5.634z" fill="#90C1FE"/></g><defs><clipPath id="clip0"><path fill="#fff" d="M0 0h112v14.715H0z"/></clipPath></defs></svg>